<svg xmlns="http://www.w3.org/2000/svg" width="142.268" height="24.004" viewBox="0 0 142.268 24.004">
  <g id="Group_16802" data-name="Group 16802" transform="translate(-553 -1556.172)">
    <g id="Group_14497" data-name="Group 14497" transform="translate(-675 -2296.828)">
      <path id="Icon_material-star" data-name="Icon material-star" d="M15.634,22.292,23.442,27,21.37,18.123l6.9-5.976-9.084-.771L15.634,3l-3.55,8.376L3,12.147l6.9,5.976L7.826,27Z" transform="translate(1342 3850)" fill="#fff"/>
    </g>
    <path id="Icon_ionic-md-star" data-name="Icon ionic-md-star" d="M16.422,23.793l7.8,4.707L22.16,19.621l6.887-5.97-9.079-.78L16.422,4.5l-3.546,8.371-9.079.78,6.887,5.97L8.619,28.5Z" transform="translate(636.953 1551.672)" fill="#fff"/>
    <path id="Icon_ionic-md-star-2" data-name="Icon ionic-md-star" d="M16.422,23.793l7.8,4.707L22.16,19.621l6.887-5.97-9.079-.78L16.422,4.5l-3.546,8.371-9.079.78,6.887,5.97L8.619,28.5Z" transform="translate(607.703 1551.672)" fill="#fff"/>
    <path id="Icon_ionic-md-star-3" data-name="Icon ionic-md-star" d="M16.422,23.793l7.8,4.707L22.16,19.621l6.887-5.97-9.079-.78L16.422,4.5l-3.546,8.371-9.079.78,6.887,5.97L8.619,28.5Z" transform="translate(578.453 1551.672)" fill="#fff"/>
    <path id="Icon_ionic-md-star-4" data-name="Icon ionic-md-star" d="M16.422,23.793l7.8,4.707L22.16,19.621l6.887-5.97-9.079-.78L16.422,4.5l-3.546,8.371-9.079.78,6.887,5.97L8.619,28.5Z" transform="translate(549.203 1551.672)" fill="#fff"/>
  </g>
</svg>
